# xmcd
#
# Track frame offsets: 
#        150
#        15488
#        31385
#        53675
#        72863
#        96233
#        115465
#        127800
#        152550
#        169125
#
# Disc length: 2474 seconds
#
# Revision: 2
# Processed by: cddbd v1.5.2PL0 Copyright (c) Steve Scherf et al.
# Submitted via: ExactAudioCopy v1.0b3
#
DISCID=7809a80a
DTITLE=Various Artist - Da Vu Bebop Chacha
DYEAR=1993
DGENRE=
TTITLE0=Ngoc Lan - Tinh yeu do [bebop]
TTITLE1=Kieu Nga - Chuyen tinh yeu [chacha]
TTITLE2=Cong Thanh - Je ne t'aime plus [bebop]
TTITLE3=Nhu Mai - Nang giang tien [chacha]
TTITLE4=Tuan Anh - Papa [bebop]
TTITLE5=Ngoc Lan - Em da yeu [chacha]
TTITLE6=Kieu Nga - Tinh yeu [bebop]
TTITLE7=Cong Thanh, Lynn - Black magic woman [chacha]
TTITLE8=Carol Kim - Mua dem [bebop]
TTITLE9=Tuan Anh - Oh Carol [chacha]
EXTD=
EXTT0=
EXTT1=
EXTT2=
EXTT3=
EXTT4=
EXTT5=
EXTT6=
EXTT7=
EXTT8=
EXTT9=
PLAYORDER=
